<svg width="18" height="18" viewBox="0 0 18 18" fill="none" xmlns="http://www.w3.org/2000/svg">
<g clip-path="url(#clip0_1_3159)">
<path d="M6.11333 5.59989L8.505 0.874895C8.62167 0.641562 8.79667 0.524895 9.03 0.524895C9.26333 0.524895 9.43833 0.641562 9.555 0.874895L11.9467 5.59989L17.3133 6.35823C17.43 6.39712 17.5369 6.46517 17.6342 6.56239C17.7314 6.65962 17.78 6.78601 17.78 6.94156C17.78 7.09712 17.7217 7.25267 17.605 7.40823L13.755 11.0832L14.63 16.2166C14.6689 16.4888 14.6008 16.6929 14.4258 16.8291C14.2508 16.9652 14.0467 16.9943 13.8133 16.9166L9.03 14.4082L4.24667 16.9166H4.07167C3.87722 16.9554 3.71194 16.9068 3.57583 16.7707C3.43972 16.6346 3.39111 16.4499 3.43 16.2166L4.305 11.0832L0.454999 7.40823C0.338332 7.29156 0.279999 7.15545 0.279999 6.99989C0.279999 6.84434 0.318888 6.70823 0.396665 6.59156C0.474443 6.47489 0.610554 6.39712 0.804999 6.35823L6.11333 5.59989ZM9.03 13.1832C9.10778 13.1443 9.18555 13.1638 9.26333 13.2416L13.2883 15.2832L12.53 10.9666C12.4911 10.7332 12.5494 10.5388 12.705 10.3832L9.03 2.44989L11.48 6.76656C11.2856 6.72767 11.1494 6.611 11.0717 6.41656L9.03 2.44989L12.705 10.3832L13.2883 15.2832L9.03 13.1832Z" fill="#FFC107"/>
</g>
<defs>
<clipPath id="clip0_1_3159">
<rect width="17.52" height="17.5" fill="white" transform="matrix(1 0 0 -1 0.269989 17.5)"/>
</clipPath>
</defs>
</svg>
